<svg width="344" height="51" viewBox="0 0 344 51" fill="none" xmlns="http://www.w3.org/2000/svg">
<path d="M3.35996 45V10.68H32.112C35.664 10.68 38.416 11.576 40.368 13.368C42.352 15.16 43.344 17.88 43.344 21.528C43.344 24.632 42.624 27.064 41.184 28.824C39.744 30.584 37.696 31.688 35.04 32.136L42.96 45H34.224L26.88 32.376H11.04V45H3.35996ZM31.2 16.92H11.04V26.088L31.2 26.136C32.608 26.136 33.68 25.784 34.416 25.08C35.184 24.376 35.568 23.192 35.568 21.528C35.568 19.832 35.184 18.648 34.416 17.976C33.68 17.272 32.608 16.92 31.2 16.92ZM49.11 45V10.68H86.742V16.92H56.79V24.504H83.958V30.744H56.79V38.76H86.742V45H49.11ZM92.0006 45V10.68H99.7766L124.065 35.352V10.68H131.745V45H123.969L99.6806 20.28V45H92.0006ZM137.254 28.056V10.68H179.494V28.056H171.718V16.92H161.254V45H153.574V16.92H145.03V28.056H137.254Z" fill="white"/>
<path d="M187.881 45L184.041 10.68H191.721L194.553 35.736L204.105 28.392V10.68H211.785V28.44L221.241 35.736L224.121 10.68H231.801L227.961 45H221.529L207.945 34.008L194.313 45H187.881ZM237.547 45V10.68H245.227V45H237.547ZM250.834 45.24V39L278.434 39.048C279.842 39.048 280.914 38.728 281.65 38.088C282.418 37.416 282.802 36.344 282.802 34.872C282.802 33.4 282.418 32.344 281.65 31.704C280.914 31.032 279.842 30.696 278.434 30.696H261.25C257.698 30.696 254.93 29.848 252.946 28.152C250.994 26.424 250.018 23.896 250.018 20.568C250.018 17.24 250.994 14.728 252.946 13.032C254.93 11.304 257.698 10.44 261.25 10.44H288.226V16.68L262.066 16.632C260.69 16.632 259.618 16.952 258.85 17.592C258.082 18.2 257.698 19.192 257.698 20.568C257.698 21.944 258.082 22.952 258.85 23.592C259.618 24.2 260.69 24.504 262.066 24.504H279.25C282.802 24.504 285.554 25.384 287.506 27.144C289.49 28.872 290.482 31.448 290.482 34.872C290.482 38.264 289.49 40.84 287.506 42.6C285.554 44.36 282.802 45.24 279.25 45.24H250.834ZM295.297 45V10.68H332.929V16.92H302.977V24.504H330.145V30.744H302.977V38.76H332.929V45H295.297Z" fill="#C9FFA8"/>
</svg>
